<?xml version="1.0" encoding="UTF-8"?>
<svg id="Layer_1" data-name="Layer 1" xmlns="http://www.w3.org/2000/svg" xmlns:xlink="http://www.w3.org/1999/xlink" viewBox="0 0 1079.32 1079.33">
  <defs>
    <style>
      .cls-1 {
        fill: #fff;
      }

      .cls-2 {
        fill: url(#New_Gradient_Swatch_4);
      }
    </style>
    <radialGradient id="New_Gradient_Swatch_4" data-name="New Gradient Swatch 4" cx="531.72" cy="555.15" fx="531.72" fy="555.15" r="771.82" gradientTransform="translate(11.46 7.34) scale(.98)" gradientUnits="userSpaceOnUse">
      <stop offset="0" stop-color="#e1e5e9"/>
      <stop offset=".41" stop-color="#eaedef"/>
      <stop offset="1" stop-color="#f5f6f7"/>
    </radialGradient>
  </defs>
  <rect class="cls-2" width="1079.32" height="1079.32"/>
  <g>
    <rect width="1079.32" height="1079.33"/>
    <g>
      <path class="cls-1" d="m457.92,555.81h-8.37l-1.35,6.56h0l-31.72,149.97c-5.54,25.9-8.08,34.64-12.84,46.32-1.54,3.78-3.38,7.21-5.33,10.48l-7.03,9.31c-10.94,11.87-25.52,18.16-43.04,18.16-30.68,0-48.18-17.17-48.18-47.09,0-9.81.76-14.56,4.37-32.05l34.66-161.65h-63.21l-1.35,6.56h29.18l-29.55,139.01c-4.01,18.63-5.84,29.93-5.84,39.8,0,40.47,26.62,62.35,74.43,62.35,2.73,0,5.35-.11,7.97-.26,20.55-1.15,35.38-7.11,46.36-18.94,1.36-1.53,2.79-3.13,4.06-4.88.75-1.06,1.52-2.27,2.25-3.47,4.1-6.56,7.77-14.01,10.48-22.06.93-2.67,1.77-5.77,2.76-9.05,3.34-11.72,6.83-26.43,10.07-39.82l15.74-74.65,71.27,165.83h-30.66l-2.12,7.24h73.61l-96.62-247.64Z"/>
      <path class="cls-1" d="m181.51,639.02l24.11,13.75c33.74,18.53,48.2,39.22,48.2,68.18,0,47.1-36.74,85.25-81.92,85.25-22.63,0-39.67-7.38-58.58-25.53l-22.62,20.72h-5.93l16.69-79.67h5.89c0,21.48,3.75,35.94,12.59,49.31,11.51,17.4,31.54,28.15,53.38,28.15,31.16,0,58.24-23.71,58.24-50.79,0-16.69-11.51-31.88-34.46-46.7l-38.92-24.47c-20.75-13.36-31.2-31.11-31.2-53.76,0-43.37,29.37-74.17,71.24-74.17,19.63,0,37.78,8.17,51.88,23.76l11.98-17.23h8.52l-13.79,67.26h-5.95c-.36-3.32-.36-6.67-.36-9.99,0-20.43-5.98-34.48-18.94-44.52-8.9-6.99-23.33-11.84-34.83-11.84-27.05,0-50.79,20.02-50.79,42.62,0,13.74,11.08,26.37,35.57,39.68Z"/>
      <path class="cls-1" d="m865.52,796.78c38.99,0,55.01-6.52,69.83-28.06,8.92-13.04,10.78-18.22,18.62-39.84h6.37l-16.04,74.57h-173.55l1.77-10.04,172.53-230.89h-83.84c-25.35,0-40.19,6.65-51.7,23.78-6.37,9.24-8.92,11.51-15.99,29.97v.13h-5.96v-.13c.39-6.61.73-9.92.73-13.63,0-29.74-12.66-40.13-47.96-40.13h-89.79c.99.46,2.05.96,3.06,1.43,14.15,7.86,21.94,22.7,21.94,41.31,0,28.64-17.85,49.46-50.57,58.74-10.79,2.98-18.57,4.47-37.93,6.35,29.75,10.4,42.08,18.95,50.24,35.33,5.21,10.75,8.19,24.19,8.58,38.69l.28,22.62c2.18,20.13,10.65,23.62,17.61,27.41,13.04,6.61,99.72,11.32,110.42-65.34h5.95l-15.58,74.39h-134.91c-3.32-1.73-6.2-3.92-8.81-6.67-9.33-10.07-14.06-27.31-15.99-54.32l-2.16-32c-1.84-26.76-15.65-38.27-44.61-38.27h-15.66l1.48-7.46h24.56c30.52,0,45-4.06,54.67-16.35,9.31-11.88,15.98-32.76,15.98-51.29,0-26.41-10.4-34.58-43.51-34.58h-130.09l-3.09-6.71h532.15l-180.79,240.97h51.75Z"/>
      <path class="cls-1" d="m702.01,674.14h-20.51l1.64-7.12h16.09c30.37,0,46.05-11.77,51.55-38.94l1.58-7.11h6.63l-21.98,103.85h-6.26l2.35-11.78c1.11-5.89,1.55-11.01,1.55-15.34,0-15.36-10.98-23.57-32.65-23.57Z"/>
      <polygon class="cls-1" points="444.47 555.81 415.23 555.81 413.85 562.31 432.91 607.57 444.47 555.81"/>
      <g>
        <path class="cls-1" d="m822.82,441.53h6.3l22-103.82h-6.64l-1.6,7.02c-5.46,27.18-21.26,38.97-51.54,38.97h-16.13l-1.54,7.07h20.48c21.59,0,32.63,8.27,32.63,23.62,0,4.32-.4,9.43-1.56,15.32l-2.4,11.83Z"/>
        <path class="cls-1" d="m262.35,273.11l-12.44,60.06h6.12c3.99-11.14,7.17-17.36,13.13-26.27,12.56-18.21,30.81-27.08,55.64-27.08h38.18l-49.77,233.8h-28.36l-1.39,6.7h63.11l51.2-240.5h49.39c30.36,0,45.62,15.55,45.62,47.48,0,1.7-.14,3.63-.28,5.87h5.62l11.4-53.55h53.74c35.26,0,47.86,10.42,47.86,40.06,0,3.74-.36,7.1-.76,13.77h5.95l11.52-53.63h55.45c33.01,0,43.41,8.16,43.41,34.5,0,18.53-6.64,39.33-15.94,51.18-9.67,12.26-24.11,16.37-54.54,16.37h-24.49l-1.49,7.43h15.6c28.91,0,42.64,11.48,44.47,38.22l2.22,31.9c1.87,26.97,6.57,44.17,15.92,54.2,2.56,2.76,5.54,4.99,8.81,6.7h121.24l15.53-74.23h-5.85c-10.85,77.33-93.21,72.91-105.6,65.17-6.99-3.77-8.87-10.34-8.87-27.33l-.33-22.64c-.35-14.5-3.34-27.85-8.53-38.6-8.17-16.35-20.4-24.86-50.11-35.24,19.31-1.9,27.12-3.36,37.9-6.31,32.62-9.27,50.42-30.1,50.42-58.66,0-18.51-7.8-33.34-21.87-41.2-1.02-.5-2.1-.98-3.13-1.45h80.61c35.28,0,47.88,10.39,47.88,40.03,0,3.76-.37,7.11-.65,13.77h5.88l13-60.51H262.35Z"/>
        <path class="cls-1" d="m579.33,485.75c-14.44,20.04-34.87,27.49-73.85,27.49h-81.23l-1.43,7.07h165.8l15.65-74.64h-6.01c-7.03,21.19-10.35,28.59-18.92,40.08Z"/>
        <path class="cls-1" d="m564.47,441.53h6.25l21.99-103.82h-6.64l-1.56,7.02c-5.46,27.18-21.22,38.97-51.55,38.97h-16.11l-1.59,7.07h20.46c21.59,0,32.68,8.27,32.68,23.62,0,4.32-.37,9.43-1.58,15.32l-2.36,11.83Z"/>
      </g>
    </g>
  </g>
</svg>